<?xml version="1.0" encoding="UTF-8" standalone="no"?>
<!-- Created with Inkscape (http://www.inkscape.org/) -->

<svg
   xmlns:dc="http://purl.org/dc/elements/1.1/"
   xmlns:cc="http://creativecommons.org/ns#"
   xmlns:rdf="http://www.w3.org/1999/02/22-rdf-syntax-ns#"
   xmlns:svg="http://www.w3.org/2000/svg"
   xmlns="http://www.w3.org/2000/svg"
   xmlns:xlink="http://www.w3.org/1999/xlink"
   xmlns:sodipodi="http://sodipodi.sourceforge.net/DTD/sodipodi-0.dtd"
   xmlns:inkscape="http://www.inkscape.org/namespaces/inkscape"
   width="159.31424"
   height="148.13283"
   id="svg5441"
   version="1.1"
   inkscape:version="0.48.4 r9939"
   sodipodi:docname="logot.svg"
   inkscape:export-filename="/home/wes/ownCloud/documents/atoutcoeur/website/img/logo.png"
   inkscape:export-xdpi="90"
   inkscape:export-ydpi="90">
  <defs
     id="defs5443">
    <linearGradient
       inkscape:collect="always"
       xlink:href="#linearGradient5413"
       id="linearGradient5419"
       x1="-189.88171"
       y1="97.489922"
       x2="-30.567474"
       y2="97.489922"
       gradientUnits="userSpaceOnUse"
       spreadMethod="reflect" />
    <linearGradient
       id="linearGradient5413">
      <stop
         style="stop-color:#86181c;stop-opacity:1;"
         offset="0"
         id="stop5415" />
      <stop
         id="stop5982"
         offset="0.31999999"
         style="stop-color:#ae181c;stop-opacity:1;" />
      <stop
         id="stop5980"
         offset="1"
         style="stop-color:#86181c;stop-opacity:1;" />
    </linearGradient>
    <linearGradient
       gradientTransform="translate(295.34288,458.29577)"
       y2="97.489922"
       x2="-30.567474"
       y1="97.489922"
       x1="-189.88171"
       spreadMethod="reflect"
       gradientUnits="userSpaceOnUse"
       id="linearGradient5439"
       xlink:href="#linearGradient5413"
       inkscape:collect="always" />
  </defs>
  <sodipodi:namedview
     id="base"
     pagecolor="#ffffff"
     bordercolor="#666666"
     borderopacity="1.0"
     inkscape:pageopacity="0"
     inkscape:pageshadow="2"
     inkscape:zoom="3.959798"
     inkscape:cx="23.609752"
     inkscape:cy="82.505979"
     inkscape:document-units="px"
     inkscape:current-layer="layer1"
     showgrid="false"
     fit-margin-top="0"
     fit-margin-left="0"
     fit-margin-right="0"
     fit-margin-bottom="0"
     inkscape:window-width="1920"
     inkscape:window-height="1005"
     inkscape:window-x="0"
     inkscape:window-y="25"
     inkscape:window-maximized="1"
     showborder="true" />
  <metadata
     id="metadata5446">
    <rdf:RDF>
      <cc:Work
         rdf:about="">
        <dc:format>image/svg+xml</dc:format>
        <dc:type
           rdf:resource="http://purl.org/dc/dcmitype/StillImage" />
        <dc:title></dc:title>
      </cc:Work>
    </rdf:RDF>
  </metadata>
  <g
     inkscape:label="Layer 1"
     inkscape:groupmode="layer"
     id="layer1"
     transform="translate(-295.34288,-458.29577)">
    <path
       style="fill:url(#linearGradient5439);fill-opacity:1.0;fill-rule:nonzero"
       d="m 365.84323,606.35825 c -3.575,0.2251 -12.8,-0.10821 -20.5,-0.74069 -11.40511,-0.93682 -13.96953,-1.42798 -13.83561,-2.64996 0.0904,-0.825 1.10292,-4.07626 2.25,-7.22502 1.25448,-3.44355 2.08561,-8.13881 2.08561,-11.78212 0,-3.3314 -0.68956,-7.70745 -1.53236,-9.72455 -0.8428,-2.0171 -3.33235,-6.00058 -5.53234,-8.85218 -2.2,-2.8516 -8.91266,-9.35218 -14.91704,-14.44573 -6.00438,-5.09354 -12.34799,-11.04161 -14.09692,-13.21791 -1.74892,-2.1763 -3.5727,-5.70531 -4.05283,-7.84223 -0.50147,-2.23187 -0.49046,-8.25263 0.0259,-14.14778 0.49436,-5.64437 1.86203,-13.18748 3.03926,-16.76248 1.17723,-3.575 3.05332,-8.33244 4.1691,-10.57208 1.11578,-2.23965 5.15336,-7.29104 8.97241,-11.22531 3.81905,-3.93427 9.30198,-8.66033 12.18429,-10.50235 2.88231,-1.84202 7.36985,-4.16113 9.9723,-5.15358 4.07316,-1.5533 5.16863,-1.62349 7.87062,-0.50428 1.72638,0.71509 3.9846,2.20794 5.01826,3.31744 1.03366,1.10951 1.87938,2.86863 1.87938,3.90917 0,1.30414 1.32032,2.39677 4.25,3.51708 2.3375,0.89386 7.53665,3.33412 11.55366,5.42279 6.02421,3.13234 7.95118,3.68854 11,3.17509 2.03299,-0.34237 7.07134,-2.25633 11.19635,-4.25324 l 7.5,-3.63073 -0.31474,-4.03284 c -0.22741,-2.91385 0.26153,-4.76545 1.76218,-6.67322 1.14231,-1.45221 3.41989,-2.93535 5.06128,-3.29586 1.6414,-0.36051 4.58185,-0.12825 6.53434,0.51613 1.9525,0.64438 5.58142,2.92979 8.06429,5.0787 2.48286,2.1489 5.52244,3.90709 6.75463,3.90709 1.23219,0 4.92621,1.74524 8.20893,3.8783 3.93459,2.55665 7.49537,6.03707 10.44883,10.21304 2.46415,3.4841 5.48758,8.28391 6.71875,10.66625 1.23117,2.38233 2.87394,7.12396 3.6506,10.53696 0.77666,3.413 1.97793,10.93095 2.66949,16.70657 0.69156,5.77562 0.95713,12.07562 0.59016,14 -0.42469,2.22706 -3.01327,6.27929 -7.12139,11.14802 -4.56024,5.40456 -9.08255,9.36603 -15.41121,13.5 -4.92638,3.21797 -10.31327,6.60046 -11.97088,7.51664 -1.65761,0.91617 -4.22081,3.61617 -5.69601,6 -1.4752,2.38382 -4.31727,6.06324 -6.31571,8.17648 -1.99845,2.11325 -5.54604,5.17237 -7.88354,6.79805 -2.3375,1.62567 -4.25,3.56224 -4.25,4.30349 0,0.74124 2.25,2.79153 5,4.5562 2.75,1.76467 5,3.80168 5,4.52669 0,0.72501 -1.54966,1.82964 -3.44369,2.45473 -1.89404,0.62508 -9.43154,1.5558 -16.75,2.06824 -7.31848,0.51245 -16.23132,1.1159 -19.80632,1.34099 z m 7.17798,-30.39065 c 0.4757,0 2.61863,-1.16056 4.76206,-2.57902 2.14344,-1.41846 8.83726,-8.50596 14.87516,-15.75 6.03789,-7.24404 12.26202,-14.34417 13.8314,-15.77806 1.56937,-1.4339 7.12841,-5.57616 12.35341,-9.20502 5.225,-3.62887 10.58172,-7.43747 11.90383,-8.46357 l 2.40383,-1.86563 -1.19566,-9.32326 c -0.65761,-5.12778 -1.62994,-10.13471 -2.16073,-11.1265 -0.53079,-0.99179 -2.64947,-3.82266 -4.70817,-6.29082 -2.05871,-2.46817 -4.6431,-5.94184 -5.7431,-7.71928 -1.1,-1.77743 -3.1686,-4.09323 -4.5969,-5.14621 -1.55208,-1.14425 -4.97847,-2.13047 -8.51628,-2.45127 -3.84259,-0.34844 -8.19418,0.0367 -12.4031,1.09772 -3.56605,0.89896 -9.3913,3.05193 -12.94499,4.78437 -3.55369,1.73243 -7.02643,3.14988 -7.7172,3.14988 -0.69076,0 -2.95819,-0.72 -5.03873,-1.60001 -2.08054,-0.88001 -6.70781,-2.68865 -10.28281,-4.01921 -3.575,-1.33055 -9.08693,-3.00728 -12.24873,-3.72606 -4.54662,-1.0336 -6.84684,-1.05926 -11,-0.12275 -2.8882,0.65126 -5.87699,1.57613 -6.64175,2.05525 -0.76477,0.47912 -1.6678,2.57715 -2.00673,4.66228 -0.53837,3.31217 -1.2471,4.11497 -5.60951,6.35416 -3.6395,1.86813 -5.51807,3.63833 -6.92893,6.52923 -1.06462,2.18142 -2.12808,6.28658 -2.36327,9.12257 -0.33955,4.09452 0.14074,6.42279 2.33232,11.30627 2.05619,4.5818 3.93368,7.00117 7.36326,9.48846 2.53184,1.8362 9.18248,5.67568 14.77921,8.53217 8.32815,4.25058 11.15878,6.31857 15.58904,11.38897 2.97724,3.40744 7.13628,8.67034 9.24231,11.69534 2.10602,3.025 5.6239,7.6375 7.8175,10.25 2.19359,2.6125 4.37756,4.75 4.85326,4.75 z"
       id="path3069"
       inkscape:connector-curvature="0" />
    <text
       xml:space="preserve"
       style="font-size:16.04878426px;font-style:normal;font-weight:normal;line-height:125%;letter-spacing:0px;word-spacing:0px;fill:#9a181c;fill-opacity:1;stroke:none;font-family:Sans"
       x="324.18448"
       y="516.51111"
       id="text6130"
       sodipodi:linespacing="125%"><tspan
         sodipodi:role="line"
         id="tspan6132"
         x="324.18448"
         y="516.51111"
         style="fill:#9a181c;fill-opacity:1;font-family:Papyrus;-inkscape-font-specification:Papyrus">Atout Coeur</tspan></text>
    <text
       xml:space="preserve"
       style="font-size:10px;font-style:normal;font-weight:normal;line-height:125%;letter-spacing:0px;word-spacing:0px;fill:#000000;fill-opacity:1;stroke:none;font-family:Sans"
       x="-31.428572"
       y="72.418541"
       id="text3083"
       sodipodi:linespacing="125%"
       transform="translate(295.34288,458.29577)"><tspan
         sodipodi:role="line"
         id="tspan3085"
         x="-31.428572"
         y="72.418541" /></text>
  </g>
</svg>
